<svg width="100" height="100" viewBox="0 0 100 100" fill="none" xmlns="http://www.w3.org/2000/svg">
<path d="M39.248 45.64C36.688 45.64 34.4 45.064 32.384 43.912C30.4 42.728 28.832 41.144 27.68 39.16C26.56 37.144 26 34.872 26 32.344C26 29.752 26.56 27.448 27.68 25.432C28.8 23.416 30.336 21.848 32.288 20.728C34.24 19.576 36.48 19 39.008 19C40.896 19 42.624 19.368 44.192 20.104C45.76 20.808 47.168 21.88 48.416 23.32C48.864 23.832 49.024 24.36 48.896 24.904C48.768 25.448 48.416 25.928 47.84 26.344C47.392 26.664 46.896 26.776 46.352 26.68C45.808 26.552 45.312 26.264 44.864 25.816C43.296 24.152 41.344 23.32 39.008 23.32C37.376 23.32 35.936 23.704 34.688 24.472C33.44 25.208 32.464 26.248 31.76 27.592C31.056 28.936 30.704 30.52 30.704 32.344C30.704 34.072 31.056 35.608 31.76 36.952C32.496 38.296 33.504 39.368 34.784 40.168C36.064 40.936 37.552 41.32 39.248 41.32C40.368 41.32 41.344 41.192 42.176 40.936C43.04 40.648 43.824 40.216 44.528 39.64C45.04 39.224 45.568 39 46.112 38.968C46.656 38.904 47.136 39.048 47.552 39.4C48.096 39.848 48.4 40.36 48.464 40.936C48.528 41.48 48.336 41.976 47.888 42.424C45.584 44.568 42.704 45.64 39.248 45.64Z" fill="white"/>
<path d="M39.224 83.128C36.728 83.128 34.488 82.552 32.504 81.4C30.52 80.216 28.952 78.616 27.8 76.6C26.648 74.584 26.056 72.312 26.024 69.784V47.896C26.024 47.16 26.248 46.568 26.696 46.12C27.176 45.672 27.768 45.448 28.472 45.448C29.208 45.448 29.8 45.672 30.248 46.12C30.696 46.568 30.92 47.16 30.92 47.896V60.856C32.04 59.512 33.384 58.456 34.952 57.688C36.552 56.888 38.296 56.488 40.184 56.488C42.52 56.488 44.616 57.08 46.472 58.264C48.328 59.416 49.784 61 50.84 63.016C51.928 65 52.472 67.256 52.472 69.784C52.472 72.312 51.88 74.584 50.696 76.6C49.544 78.616 47.976 80.216 45.992 81.4C44.008 82.552 41.752 83.128 39.224 83.128ZM39.224 78.808C40.856 78.808 42.312 78.424 43.592 77.656C44.872 76.856 45.88 75.768 46.616 74.392C47.384 73.016 47.768 71.48 47.768 69.784C47.768 68.056 47.384 66.52 46.616 65.176C45.88 63.832 44.872 62.776 43.592 62.008C42.312 61.208 40.856 60.808 39.224 60.808C37.624 60.808 36.168 61.208 34.856 62.008C33.576 62.776 32.568 63.832 31.832 65.176C31.096 66.52 30.728 68.056 30.728 69.784C30.728 71.48 31.096 73.016 31.832 74.392C32.568 75.768 33.576 76.856 34.856 77.656C36.168 78.424 37.624 78.808 39.224 78.808Z" fill="white"/>
<path d="M71.008 44.968L53.296 34.36C52.432 33.816 52 33.08 52 32.152C52 31.32 52.432 30.6 53.296 29.992L71.008 19.336C71.872 18.888 72.704 18.888 73.504 19.336C74.304 19.752 74.704 20.424 74.704 21.352C74.704 22.312 74.304 23.032 73.504 23.512L57.328 33.112V31.048L73.504 40.744C74.304 41.256 74.704 41.96 74.704 42.856C74.704 43.496 74.496 44.04 74.08 44.488C73.696 44.904 73.216 45.176 72.64 45.304C72.064 45.4 71.52 45.288 71.008 44.968Z" fill="white"/>
</svg>
